<?xml version="1.0" encoding="utf-8"?>
<svg id="master-artboard" viewBox="0 0 2277.062744140625 500" version="1.1" xmlns="http://www.w3.org/2000/svg" x="0px" y="0px" style="enable-background:new 0 0 336 235.2;" width="2277.062744140625px" height="500px"><rect id="ee-background" x="0" y="0" width="2277.062744140625" height="500" style="fill: white; fill-opacity: 0; pointer-events: none;"/><defs><style id="ee-google-fonts">@import url(https://fonts.googleapis.com/css?family=Assistant:200,300,400,600,700,800);</style><radialGradient id="gradient-0" gradientUnits="objectBoundingBox" cx="0.5" cy="0.5" r="0.5">
                <stop offset="0" style="stop-color: #333333"/>
                <stop offset="1" style="stop-color: #000000"/>
              </radialGradient><linearGradient id="gradient-1" gradientUnits="userSpaceOnUse" x1="652" y1="46" x2="652" y2="146" gradientTransform="matrix(0.9666930388382742, 0.25593844151551365, -0.24775113449195146, 0.9357684240879235, 45.04151473620574, -162.08198873265897)">
                <stop offset="0" style="stop-color: rgb(255, 13, 255);"/>
                <stop offset="1" style="stop-color: rgb(12, 8, 117);"/>
              </linearGradient></defs>





















































































































































<g id="g-1" transform="matrix(4.9675188064575195, 0, 0, 4.9675188064575195, -2988.13134765625, -226.8817901611328)">
	<g id="g-2">
		
	<path class="st0" d="M652,46c27.6,0,50,22.4,50,50s-22.4,50-50,50s-50-22.4-50-50S624.4,46,652,46z" style="fill: url('#gradient-1');"/></g>
</g><path d="M 1.309999942779541 -7.340000152587891 L 2.390000104904175 -7.340000152587891 L 5.909999847412109 -1.2799999713897705 L 6.929999828338623 0.6399999856948853 L 6.989999771118164 0.6399999856948853 L 6.949999809265137 0.009999990463256836 C 6.936666488647461 -0.14333343505859375 6.916666507720947 -0.4633333683013916 6.889999866485596 -0.9500000476837158 C 6.863333225250244 -1.43666672706604 6.849999904632568 -1.880000114440918 6.849999904632568 -2.2800002098083496 L 6.849999904632568 -7.340000152587891 L 7.840000152587891 -7.340000152587891 L 7.840000152587891 2 L 6.760000228881836 2 L 3.240000009536743 -4.050000190734863 L 2.2200000286102295 -5.96999979019165 L 2.1600000858306885 -5.96999979019165 L 2.200000047683716 -5.289999961853027 C 2.2666666507720947 -4.4633331298828125 2.299999952316284 -3.739999771118164 2.299999952316284 -3.119999885559082 L 2.299999952316284 2 L 1.309999942779541 2 L 1.309999942779541 -7.340000152587891 ZM 12.990900993347168 2.1700000762939453 C 12.417567253112793 2.1700000762939453 11.890900611877441 2.0266666412353516 11.410901069641113 1.7400000095367432 C 10.924234390258789 1.4466667175292969 10.537567138671875 1.0299999713897705 10.250901222229004 0.49000000953674316 C 9.964234352111816 -0.05666661262512207 9.820900917053223 -0.7000000476837158 9.820900917053223 -1.440000057220459 C 9.820900917053223 -2.179999828338623 9.964234352111816 -2.823333263397217 10.250901222229004 -3.369999885559082 C 10.537567138671875 -3.923333168029785 10.924234390258789 -4.3433332443237305 11.410901069641113 -4.630000114440918 C 11.890900611877441 -4.916666507720947 12.417567253112793 -5.059999942779541 12.990900993347168 -5.059999942779541 C 13.557567596435547 -5.059999942779541 14.080900192260742 -4.916666507720947 14.560900688171387 -4.630000114440918 C 15.047567367553711 -4.3433332443237305 15.434234619140625 -3.923333168029785 15.720901489257812 -3.369999885559082 C 16.01423454284668 -2.823333263397217 16.160900115966797 -2.179999828338623 16.160900115966797 -1.440000057220459 C 16.160900115966797 -0.7000000476837158 16.01423454284668 -0.05666661262512207 15.720901489257812 0.49000000953674316 C 15.434234619140625 1.0299999713897705 15.047567367553711 1.4466667175292969 14.560900688171387 1.7400000095367432 C 14.080900192260742 2.0266666412353516 13.557567596435547 2.1700000762939453 12.990900993347168 2.1700000762939453 M 12.990900993347168 1.2999999523162842 C 13.397567749023438 1.2999999523162842 13.757567405700684 1.18666672706604 14.070900917053223 0.9600000381469727 C 14.390900611877441 0.7333333492279053 14.640900611877441 0.41333329677581787 14.820900917053223 0 C 15.000900268554688 -0.4200000762939453 15.090900421142578 -0.9000000953674316 15.090900421142578 -1.440000057220459 C 15.090900421142578 -1.9800000190734863 15.000900268554688 -2.4566664695739746 14.820900917053223 -2.869999885559082 C 14.640900611877441 -3.2899999618530273 14.390900611877441 -3.616666793823242 14.070900917053223 -3.8499999046325684 C 13.757567405700684 -4.083333492279053 13.397567749023438 -4.199999809265137 12.990900993347168 -4.199999809265137 C 12.584234237670898 -4.199999809265137 12.220900535583496 -4.083333492279053 11.900900840759277 -3.8499999046325684 C 11.580901145935059 -3.616666793823242 11.334234237670898 -3.2899999618530273 11.160901069641113 -2.869999885559082 C 10.987567901611328 -2.4566664695739746 10.900900840759277 -1.9800000190734863 10.900900840759277 -1.440000057220459 C 10.900900840759277 -0.6133332252502441 11.094234466552734 0.04999995231628418 11.480900764465332 0.5499999523162842 C 11.86756706237793 1.0499999523162842 12.370901107788086 1.2999999523162842 12.990900993347168 1.2999999523162842 ZM 16.951387405395508 -4.889999866485596 L 18.021387100219727 -4.889999866485596 L 19.38138771057129 -0.869999885559082 L 20.031387329101562 1.149999976158142 L 20.091386795043945 1.149999976158142 L 20.74138641357422 -0.869999885559082 L 22.111387252807617 -4.889999866485596 L 23.13138771057129 -4.889999866485596 L 20.661388397216797 2 L 19.47138786315918 2 L 16.951387405395508 -4.889999866485596 ZM 25.789339065551758 2.1700000762939453 C 25.20267105102539 2.1700000762939453 24.71933937072754 2 24.339338302612305 1.659999966621399 C 23.959339141845703 1.3199999332427979 23.769338607788086 0.8400000333786011 23.769338607788086 0.2200000286102295 C 23.769338607788086 -0.5266666412353516 24.112672805786133 -1.0999999046325684 24.799339294433594 -1.5 C 25.479339599609375 -1.9066667556762695 26.56600570678711 -2.190000057220459 28.059337615966797 -2.3499999046325684 C 28.059337615966797 -2.8899998664855957 27.949338912963867 -3.3333334922790527 27.729339599609375 -3.679999828338623 C 27.50933837890625 -4.026666641235352 27.12933921813965 -4.199999809265137 26.589338302612305 -4.199999809265137 C 25.936004638671875 -4.199999809265137 25.239337921142578 -3.946666717529297 24.499338150024414 -3.440000057220459 L 24.089338302612305 -4.150000095367432 C 24.99600601196289 -4.756666660308838 25.886005401611328 -5.059999942779541 26.75933837890625 -5.059999942779541 C 27.552671432495117 -5.059999942779541 28.139339447021484 -4.813333511352539 28.519338607788086 -4.320000171661377 C 28.899337768554688 -3.820000171661377 29.089338302612305 -3.133333206176758 29.089338302612305 -2.260000228881836 L 29.089338302612305 2 L 28.239337921142578 2 L 28.149337768554688 1.1600000858306885 L 28.109338760375977 1.1600000858306885 C 27.296005249023438 1.8333333730697632 26.522672653198242 2.1700000762939453 25.789339065551758 2.1700000762939453 M 26.059337615966797 1.3299999237060547 C 26.392671585083008 1.3299999237060547 26.716005325317383 1.253333330154419 27.029338836669922 1.100000023841858 C 27.34933853149414 0.940000057220459 27.692672729492188 0.6966667175292969 28.059337615966797 0.3700000047683716 L 28.059337615966797 -1.6500000953674316 C 26.87933921813965 -1.5099999904632568 26.039339065551758 -1.2933332920074463 25.539339065551758 -1 C 25.046005249023438 -0.7066667079925537 24.799339294433594 -0.3166666030883789 24.799339294433594 0.16999995708465576 C 24.799339294433594 0.5566666126251221 24.916006088256836 0.846666693687439 25.149337768554688 1.0399999618530273 C 25.389339447021484 1.2333333492279053 25.692672729492188 1.3299999237060547 26.059337615966797 1.3299999237060547 ZM 31.448284149169922 -7.340000152587891 L 34.148284912109375 -7.340000152587891 C 35.14161682128906 -7.340000152587891 35.91828536987305 -7.149999618530273 36.47828674316406 -6.770000457763672 C 37.044952392578125 -6.396666526794434 37.328285217285156 -5.823333263397217 37.328285217285156 -5.050000190734863 C 37.328285217285156 -4.576666831970215 37.204952239990234 -4.1566667556762695 36.95828628540039 -3.7899999618530273 C 36.71161651611328 -3.423333168029785 36.37161636352539 -3.1700000762939453 35.93828582763672 -3.0300002098083496 L 35.93828582763672 -2.9699997901916504 C 36.5316162109375 -2.8566665649414062 37.001617431640625 -2.6100001335144043 37.34828567504883 -2.2300000190734863 C 37.694950103759766 -1.8433332443237305 37.8682861328125 -1.3433332443237305 37.8682861328125 -0.7300000190734863 C 37.8682861328125 0.16333329677581787 37.55495071411133 0.8400000333786011 36.92828369140625 1.2999999523162842 C 36.294952392578125 1.7666666507720947 35.43828582763672 2 34.35828399658203 2 L 31.448284149169922 2 L 31.448284149169922 -7.340000152587891 M 33.92828369140625 -3.3299999237060547 C 35.501617431640625 -3.3299999237060547 36.28828430175781 -3.8600001335144043 36.28828430175781 -4.920000076293945 C 36.28828430175781 -5.480000019073486 36.09828567504883 -5.883333206176758 35.718284606933594 -6.130000114440918 C 35.34495162963867 -6.376667022705078 34.76828384399414 -6.5 33.988285064697266 -6.5 L 32.49828338623047 -6.5 L 32.49828338623047 -3.3299999237060547 L 33.92828369140625 -3.3299999237060547 M 34.18828582763672 1.1600000858306885 C 35.04161834716797 1.1600000858306885 35.694950103759766 1.003333330154419 36.148284912109375 0.690000057220459 C 36.60161590576172 0.3700000047683716 36.828285217285156 -0.11333322525024414 36.828285217285156 -0.7599999904632568 C 36.828285217285156 -1.933333396911621 35.94828414916992 -2.5199999809265137 34.18828582763672 -2.5199999809265137 L 32.49828338623047 -2.5199999809265137 L 32.49828338623047 1.1600000858306885 L 34.18828582763672 1.1600000858306885 ZM 39.66082763671875 -4.889999866485596 L 40.51082992553711 -4.889999866485596 L 40.600830078125 -3.630000114440918 L 40.64082717895508 -3.630000114440918 C 40.87416076660156 -4.076666831970215 41.164161682128906 -4.426666736602783 41.51082992553711 -4.679999828338623 C 41.850830078125 -4.933333396911621 42.21416091918945 -5.059999942779541 42.600830078125 -5.059999942779541 C 42.87416076660156 -5.059999942779541 43.1108283996582 -5.013333320617676 43.310829162597656 -4.920000076293945 L 43.1108283996582 -4.010000228881836 C 42.86416244506836 -4.083333492279053 42.64749526977539 -4.119999885559082 42.46083068847656 -4.119999885559082 C 42.13416290283203 -4.119999885559082 41.81416320800781 -3.989999771118164 41.50082778930664 -3.7300000190734863 C 41.18082809448242 -3.4633331298828125 40.907493591308594 -3.0500001907348633 40.68082809448242 -2.489999771118164 L 40.68082809448242 2 L 39.66082763671875 2 L 39.66082763671875 -4.889999866485596 ZM 44.49205017089844 -4.889999866485596 L 45.51205062866211 -4.889999866485596 L 45.51205062866211 2 L 44.49205017089844 2 L 44.49205017089844 -4.889999866485596 M 45.01205062866211 -6.369999885559082 C 44.80538558959961 -6.369999885559082 44.63538360595703 -6.436666488647461 44.502052307128906 -6.569999694824219 C 44.368717193603516 -6.703332901000977 44.30205154418945 -6.876667022705078 44.30205154418945 -7.090000152587891 C 44.30205154418945 -7.303333282470703 44.368717193603516 -7.473333358764648 44.502052307128906 -7.600000381469727 C 44.63538360595703 -7.726666450500488 44.80538558959961 -7.789999961853027 45.01205062866211 -7.789999961853027 C 45.22538375854492 -7.789999961853027 45.39871597290039 -7.726666450500488 45.53205108642578 -7.600000381469727 C 45.65871810913086 -7.473333358764648 45.722049713134766 -7.303333282470703 45.722049713134766 -7.090000152587891 C 45.722049713134766 -6.876667022705078 45.65871810913086 -6.703332901000977 45.53205108642578 -6.569999694824219 C 45.39871597290039 -6.436666488647461 45.22538375854492 -6.369999885559082 45.01205062866211 -6.369999885559082 ZM 50.23073959350586 5.210000038146973 C 49.37074279785156 5.210000038146973 48.68074035644531 5.043333053588867 48.16073989868164 4.710000038146973 C 47.64740753173828 4.383333206176758 47.39073944091797 3.929999828338623 47.39073944091797 3.3499999046325684 C 47.39073944091797 3.056666612625122 47.47740936279297 2.7733333110809326 47.65074157714844 2.5 C 47.824073791503906 2.2266666889190674 48.074073791503906 1.9800000190734863 48.40074157714844 1.7599999904632568 L 48.40074157714844 1.7000000476837158 C 48.220741271972656 1.5866667032241821 48.074073791503906 1.43666672706604 47.96074295043945 1.25 C 47.847408294677734 1.056666612625122 47.790740966796875 0.8333333730697632 47.790740966796875 0.5800000429153442 C 47.790740966796875 0.3133333921432495 47.86407470703125 0.0700000524520874 48.0107421875 -0.15000009536743164 C 48.15740966796875 -0.376666784286499 48.334075927734375 -0.559999942779541 48.540740966796875 -0.7000000476837158 L 48.540740966796875 -0.7599999904632568 C 48.29407501220703 -0.9600000381469727 48.084075927734375 -1.2200000286102295 47.91073989868164 -1.5399999618530273 C 47.744075775146484 -1.8599998950958252 47.66073989868164 -2.2133331298828125 47.66073989868164 -2.5999999046325684 C 47.66073989868164 -3.0866665840148926 47.77407455444336 -3.516666889190674 48.00074005126953 -3.8899998664855957 C 48.22740936279297 -4.263333320617676 48.53407287597656 -4.553333282470703 48.92074203491211 -4.760000228881836 C 49.3140754699707 -4.960000038146973 49.74074172973633 -5.059999942779541 50.200740814208984 -5.059999942779541 C 50.514076232910156 -5.059999942779541 50.83074188232422 -5.003333568572998 51.15074157714844 -4.889999866485596 L 53.540740966796875 -4.889999866485596 L 53.540740966796875 -4.079999923706055 L 52.08074188232422 -4.079999923706055 C 52.2607421875 -3.9133334159851074 52.40740966796875 -3.696666717529297 52.5207405090332 -3.429999828338623 C 52.63407516479492 -3.1633334159851074 52.69074249267578 -2.883333206176758 52.69074249267578 -2.5900001525878906 C 52.69074249267578 -2.116666793823242 52.58074188232422 -1.6966667175292969 52.360740661621094 -1.3299999237060547 C 52.14073944091797 -0.9700000286102295 51.84407424926758 -0.690000057220459 51.470741271972656 -0.49000000953674316 C 51.09074020385742 -0.28999996185302734 50.66740798950195 -0.19000005722045898 50.200740814208984 -0.19000005722045898 C 49.82073974609375 -0.19000005722045898 49.470741271972656 -0.26999998092651367 49.15074157714844 -0.43000006675720215 C 48.997406005859375 -0.309999942779541 48.880741119384766 -0.1833333969116211 48.800743103027344 -0.04999995231628418 C 48.720741271972656 0.07666671276092529 48.68074035644531 0.23333334922790527 48.68074035644531 0.41999995708465576 C 48.68074035644531 0.6666666269302368 48.77407455444336 0.8600000143051147 48.96074295043945 1 C 49.14740753173828 1.1333333253860474 49.46074295043945 1.2000000476837158 49.90074157714844 1.2000000476837158 L 51.28074264526367 1.2000000476837158 C 52.08740997314453 1.2000000476837158 52.68407440185547 1.3333332538604736 53.07073974609375 1.600000023841858 C 53.4574089050293 1.8666666746139526 53.65074157714844 2.2799999713897705 53.65074157714844 2.8399999141693115 C 53.65074157714844 3.253333330154419 53.5107421875 3.6433334350585938 53.230743408203125 4.010000228881836 C 52.94407653808594 4.376667022705078 52.540740966796875 4.6666669845581055 52.0207405090332 4.880000114440918 C 51.50074005126953 5.099999904632568 50.904075622558594 5.210000038146973 50.23073959350586 5.210000038146973 M 50.200740814208984 -0.9000000953674316 C 50.62740707397461 -0.9000000953674316 50.99074172973633 -1.056666612625122 51.290740966796875 -1.369999885559082 C 51.59074020385742 -1.690000057220459 51.74074172973633 -2.0999999046325684 51.74074172973633 -2.5999999046325684 C 51.74074172973633 -3.113333225250244 51.59407424926758 -3.5233335494995117 51.300743103027344 -3.8299999237060547 C 51.007408142089844 -4.143333435058594 50.64073944091797 -4.300000190734863 50.200740814208984 -4.300000190734863 C 49.76740646362305 -4.300000190734863 49.40074157714844 -4.143333435058594 49.10074234008789 -3.8299999237060547 C 48.800743103027344 -3.5233335494995117 48.65074157714844 -3.113333225250244 48.65074157714844 -2.5999999046325684 C 48.65074157714844 -2.0999999046325684 48.800743103027344 -1.690000057220459 49.10074234008789 -1.369999885559082 C 49.40074157714844 -1.056666612625122 49.76740646362305 -0.9000000953674316 50.200740814208984 -0.9000000953674316 M 50.37074279785156 4.470000267028809 C 50.81074142456055 4.470000267028809 51.200740814208984 4.40333366394043 51.540740966796875 4.269999980926514 C 51.88740921020508 4.130000114440918 52.15740966796875 3.943333387374878 52.35074234008789 3.7100000381469727 C 52.53740692138672 3.4766666889190674 52.630741119384766 3.2333333492279053 52.630741119384766 2.9800000190734863 C 52.630741119384766 2.6600000858306885 52.514076232910156 2.430000066757202 52.28074264526367 2.2899999618530273 C 52.040740966796875 2.1566667556762695 51.68074035644531 2.0899999141693115 51.200740814208984 2.0899999141693115 L 49.93074035644531 2.0899999141693115 C 49.63740921020508 2.0899999141693115 49.34407424926758 2.049999952316284 49.050743103027344 1.9700000286102295 C 48.550743103027344 2.323333263397217 48.300743103027344 2.736666679382324 48.300743103027344 3.2100000381469727 C 48.300743103027344 3.5966668128967285 48.484073638916016 3.9033331871032715 48.85074234008789 4.130000114440918 C 49.22407531738281 4.356666564941406 49.73073959350586 4.470000267028809 50.37074279785156 4.470000267028809 ZM 55.03548049926758 -8.149999618530273 L 56.05548095703125 -8.149999618530273 L 56.05548095703125 -5.329999923706055 L 56.025482177734375 -3.880000114440918 C 56.405479431152344 -4.260000228881836 56.775482177734375 -4.553333282470703 57.13548278808594 -4.760000228881836 C 57.4954833984375 -4.960000038146973 57.892147064208984 -5.059999942779541 58.32548141479492 -5.059999942779541 C 59.04548263549805 -5.059999942779541 59.57881546020508 -4.836666584014893 59.925479888916016 -4.389999866485596 C 60.265480041503906 -3.936666488647461 60.435482025146484 -3.266666889190674 60.435482025146484 -2.380000114440918 L 60.435482025146484 2 L 59.39548110961914 2 L 59.39548110961914 -2.25 C 59.39548110961914 -2.9099998474121094 59.288814544677734 -3.3933334350585938 59.07548141479492 -3.6999998092651367 C 58.86214828491211 -4 58.515480041503906 -4.150000095367432 58.03548049926758 -4.150000095367432 C 57.68881607055664 -4.150000095367432 57.36881637573242 -4.063333511352539 57.07548141479492 -3.8899998664855957 C 56.78214645385742 -3.7166666984558105 56.44214630126953 -3.433333396911621 56.05548095703125 -3.0399999618530273 L 56.05548095703125 2 L 55.03548049926758 2 L 55.03548049926758 -8.149999618530273 ZM 64.79859924316406 2.1700000762939453 C 64.11193084716797 2.1700000762939453 63.62193298339844 1.9766666889190674 63.3286018371582 1.590000033378601 C 63.0352668762207 1.2033333778381348 62.88859939575195 0.6499999761581421 62.88859939575195 -0.06999993324279785 L 62.88859939575195 -4.039999961853027 L 61.85860061645508 -4.039999961853027 L 61.85860061645508 -4.820000171661377 L 62.9385986328125 -4.889999866485596 L 63.05860137939453 -6.840000152587891 L 63.9286003112793 -6.840000152587891 L 63.9286003112793 -4.889999866485596 L 65.818603515625 -4.889999866485596 L 65.818603515625 -4.039999961853027 L 63.9286003112793 -4.039999961853027 L 63.9286003112793 -0.04999995231628418 C 63.9286003112793 0.4099999666213989 64.01193237304688 0.753333330154419 64.17859649658203 0.9800000190734863 C 64.34526824951172 1.2066667079925537 64.6252670288086 1.3199999332427979 65.01860046386719 1.3199999332427979 C 65.21859741210938 1.3199999332427979 65.48526763916016 1.256666660308838 65.818603515625 1.1299999952316284 L 66.02860260009766 1.909999966621399 C 65.52193450927734 2.0833332538604736 65.11193084716797 2.1700000762939453 64.79859924316406 2.1700000762939453 Z" transform="matrix(26.86945915222168, 0, 0, 26.86945915222168, 498.3720703125, 325.80548095703125)" style="fill: rgb(255, 255, 255); white-space: pre; color: rgb(255, 255, 255); stroke: rgb(255, 255, 255); paint-order: fill; stroke-opacity: 0; stroke-width: 0; -webkit-text-stroke: 0px rgb(255, 255, 255);"/><g id="g-3" transform="matrix(3.056062698364258, 0, 0, 3.056062698364258, -476.9051818847656, -930.4588623046875)">
	<g id="g-4">
		<path class="st0" d="M277,396.8c0,20.6-17,37.2-38,37.2s-38-16.7-38-37.2s38-62.8,38-62.8S277,376.2,277,396.8z" style="fill: rgb(255, 255, 255);"/>
	</g>
</g></svg>